{
	"asset":{
		"version":"2.0",
		"generator":"Created using the official Cinema 4D glTF Exporter 1.000x284978"
	},
	"scenes":[{
		"nodes":[0]
	}],
	"nodes":[{
		"name":"car.1",
		"translation":[-347.3056945800781,
		89.22554016113281,
		60.728172302246097],
		"rotation":[0.0,
		0.0,
		0.0,
		-1.0],
		"scale":[1.0,
		1.0,
		1.0],
		"children":[1,
		2,
		3,
		4,
		5,
		6,
		7,
		8,
		9,
		10]
	},
	{
		"name":"car.1-Dark Gradient",
		"mesh":0
	},
	{
		"name":"car.1-Nice Green",
		"mesh":1
	},
	{
		"name":"car.1-Polished Black",
		"mesh":2
	},
	{
		"name":"car.1-Nice Green",
		"mesh":3
	},
	{
		"name":"car.1-Metalic_2",
		"mesh":4
	},
	{
		"name":"car.1-Rainbow",
		"mesh":5
	},
	{
		"name":"car.1-Yellow",
		"mesh":6
	},
	{
		"name":"car.1-Polished Black",
		"mesh":7
	},
	{
		"name":"car.1-Pure White",
		"mesh":8
	},
	{
		"name":"car.1-Dark Gradient",
		"mesh":9
	}],
	"meshes":[{
		"name":"car.1-Dark Gradient",
		"primitives":[{
			"attributes":{
				"POSITION":1
			},
			"indices":0,
			"material":0
		}]
	},
	{
		"name":"car.1-Nice Green",
		"primitives":[{
			"attributes":{
				"POSITION":3
			},
			"indices":2,
			"material":1
		}]
	},
	{
		"name":"car.1-Polished Black",
		"primitives":[{
			"attributes":{
				"POSITION":5
			},
			"indices":4,
			"material":2
		}]
	},
	{
		"name":"car.1-Nice Green",
		"primitives":[{
			"attributes":{
				"POSITION":7
			},
			"indices":6,
			"material":1
		}]
	},
	{
		"name":"car.1-Metalic_2",
		"primitives":[{
			"attributes":{
				"POSITION":9
			},
			"indices":8,
			"material":3
		}]
	},
	{
		"name":"car.1-Rainbow",
		"primitives":[{
			"attributes":{
				"POSITION":11
			},
			"indices":10,
			"material":4
		}]
	},
	{
		"name":"car.1-Yellow",
		"primitives":[{
			"attributes":{
				"POSITION":13
			},
			"indices":12,
			"material":5
		}]
	},
	{
		"name":"car.1-Polished Black",
		"primitives":[{
			"attributes":{
				"POSITION":15
			},
			"indices":14,
			"material":2
		}]
	},
	{
		"name":"car.1-Pure White",
		"primitives":[{
			"attributes":{
				"POSITION":17
			},
			"indices":16,
			"material":6
		}]
	},
	{
		"name":"car.1-Dark Gradient",
		"primitives":[{
			"attributes":{
				"POSITION":19
			},
			"indices":18,
			"material":0
		}]
	}],
	"accessors":[{
		"bufferView":0,
		"type":"SCALAR",
		"min":[0],
		"componentType":5123,
		"count":10752,
		"byteOffset":0,
		"max":[1937]
	},
	{
		"bufferView":1,
		"type":"VEC3",
		"min":[-148.73577880859376,
		33.129234313964847,
		-225.5474395751953],
		"componentType":5126,
		"count":1938,
		"byteOffset":0,
		"max":[40.669254302978519,
		88.44185638427735,
		78.07583618164063]
	},
	{
		"bufferView":2,
		"type":"SCALAR",
		"min":[0],
		"componentType":5123,
		"count":5376,
		"byteOffset":0,
		"max":[1025]
	},
	{
		"bufferView":3,
		"type":"VEC3",
		"min":[-152.8452606201172,
		29.392560958862306,
		-235.37301635742188],
		"componentType":5126,
		"count":1026,
		"byteOffset":0,
		"max":[44.80259704589844,
		35.95574951171875,
		104.70507049560547]
	},
	{
		"bufferView":4,
		"type":"SCALAR",
		"min":[0],
		"componentType":5123,
		"count":13056,
		"byteOffset":0,
		"max":[2273]
	},
	{
		"bufferView":5,
		"type":"VEC3",
		"min":[-134.8319549560547,
		84.43513488769531,
		-175.0101776123047],
		"componentType":5126,
		"count":2274,
		"byteOffset":0,
		"max":[26.383136749267579,
		98.15757751464844,
		19.731128692626954]
	},
	{
		"bufferView":6,
		"type":"SCALAR",
		"min":[0],
		"componentType":5123,
		"count":59904,
		"byteOffset":0,
		"max":[10153]
	},
	{
		"bufferView":7,
		"type":"VEC3",
		"min":[-159.84722900390626,
		-73.5287857055664,
		-261.5312194824219],
		"componentType":5126,
		"count":10154,
		"byteOffset":0,
		"max":[51.81264877319336,
		35.04472732543945,
		249.60179138183595]
	},
	{
		"bufferView":8,
		"type":"SCALAR",
		"min":[0],
		"componentType":5123,
		"count":24678,
		"byteOffset":0,
		"max":[5199]
	},
	{
		"bufferView":9,
		"type":"VEC3",
		"min":[-179.06271362304688,
		-62.05414581298828,
		-209.53506469726563],
		"componentType":5126,
		"count":5200,
		"byteOffset":0,
		"max":[71.4736557006836,
		13.995558738708496,
		249.67327880859376]
	},
	{
		"bufferView":10,
		"type":"SCALAR",
		"min":[0],
		"componentType":5123,
		"count":1152,
		"byteOffset":0,
		"max":[195]
	},
	{
		"bufferView":11,
		"type":"VEC3",
		"min":[-123.83108520507813,
		-25.74574089050293,
		-265.64886474609377],
		"componentType":5126,
		"count":196,
		"byteOffset":0,
		"max":[16.43429183959961,
		15.962045669555664,
		-251.69602966308595]
	},
	{
		"bufferView":12,
		"type":"SCALAR",
		"min":[0],
		"componentType":5123,
		"count":72,
		"byteOffset":0,
		"max":[15]
	},
	{
		"bufferView":13,
		"type":"VEC3",
		"min":[-86.60669708251953,
		-32.561981201171878,
		-259.4776611328125],
		"componentType":5126,
		"count":16,
		"byteOffset":0,
		"max":[-20.790088653564454,
		-12.864066123962403,
		252.14273071289063]
	},
	{
		"bufferView":14,
		"type":"SCALAR",
		"min":[0],
		"componentType":5123,
		"count":22176,
		"byteOffset":0,
		"max":[3712]
	},
	{
		"bufferView":15,
		"type":"VEC3",
		"min":[-183.4647674560547,
		-89.85753631591797,
		-237.5610809326172],
		"componentType":5126,
		"count":3713,
		"byteOffset":0,
		"max":[75.79240417480469,
		22.77056312561035,
		256.0255432128906]
	},
	{
		"bufferView":16,
		"type":"SCALAR",
		"min":[0],
		"componentType":5123,
		"count":3288,
		"byteOffset":0,
		"max":[555]
	},
	{
		"bufferView":17,
		"type":"VEC3",
		"min":[-161.48973083496095,
		-17.731569290161134,
		-62.716697692871097],
		"componentType":5126,
		"count":556,
		"byteOffset":0,
		"max":[42.67023468017578,
		32.74325180053711,
		231.45054626464845]
	},
	{
		"bufferView":18,
		"type":"SCALAR",
		"min":[0],
		"componentType":5123,
		"count":12216,
		"byteOffset":0,
		"max":[2043]
	},
	{
		"bufferView":19,
		"type":"VEC3",
		"min":[-79.91018676757813,
		-27.18979263305664,
		-260.4757385253906],
		"componentType":5126,
		"count":2044,
		"byteOffset":0,
		"max":[-27.192901611328126,
		-17.61117935180664,
		253.93116760253907]
	}],
	"bufferViews":[{
		"buffer":0,
		"byteOffset":0,
		"byteLength":21504,
		"target":34963
	},
	{
		"buffer":0,
		"byteOffset":21504,
		"byteLength":23256,
		"target":34962
	},
	{
		"buffer":1,
		"byteOffset":0,
		"byteLength":10752,
		"target":34963
	},
	{
		"buffer":1,
		"byteOffset":10752,
		"byteLength":12312,
		"target":34962
	},
	{
		"buffer":2,
		"byteOffset":0,
		"byteLength":26112,
		"target":34963
	},
	{
		"buffer":2,
		"byteOffset":26112,
		"byteLength":27288,
		"target":34962
	},
	{
		"buffer":3,
		"byteOffset":0,
		"byteLength":119808,
		"target":34963
	},
	{
		"buffer":3,
		"byteOffset":119808,
		"byteLength":121848,
		"target":34962
	},
	{
		"buffer":4,
		"byteOffset":0,
		"byteLength":49356,
		"target":34963
	},
	{
		"buffer":4,
		"byteOffset":49356,
		"byteLength":62400,
		"target":34962
	},
	{
		"buffer":5,
		"byteOffset":0,
		"byteLength":2304,
		"target":34963
	},
	{
		"buffer":5,
		"byteOffset":2304,
		"byteLength":2352,
		"target":34962
	},
	{
		"buffer":6,
		"byteOffset":0,
		"byteLength":144,
		"target":34963
	},
	{
		"buffer":6,
		"byteOffset":144,
		"byteLength":192,
		"target":34962
	},
	{
		"buffer":7,
		"byteOffset":0,
		"byteLength":44352,
		"target":34963
	},
	{
		"buffer":7,
		"byteOffset":44352,
		"byteLength":44556,
		"target":34962
	},
	{
		"buffer":8,
		"byteOffset":0,
		"byteLength":6576,
		"target":34963
	},
	{
		"buffer":8,
		"byteOffset":6576,
		"byteLength":6672,
		"target":34962
	},
	{
		"buffer":9,
		"byteOffset":0,
		"byteLength":24432,
		"target":34963
	},
	{
		"buffer":9,
		"byteOffset":24432,
		"byteLength":24528,
		"target":34962
	}],
	"buffers":[{
		"uri":"data:application/octet-stream;base64,",
		"byteLength":44760
	},
	{
		"uri":"data:application/octet-stream;base64,",
		"byteLength":23064
	},
	{
		"uri":"data:application/octet-stream;base64,",
		"byteLength":53400
	},
	{
		"uri":"data:application/octet-stream;base64,",
		"byteLength":241656
	},
	{
		"uri":"data:application/octet-stream;base64,",
		"byteLength":111756
	},
	{
		"uri":"data:application/octet-stream;base64,",
		"byteLength":4656
	},
	{
		"uri":"data:application/octet-stream;base64,",
		"byteLength":336
	},
	{
		"uri":"data:application/octet-stream;base64,",
		"byteLength":88908
	},
	{
		"uri":"data:application/octet-stream;base64,",
		"byteLength":13248
	},
	{
		"uri":"data:application/octet-stream;base64,",
		"byteLength":48960
	}],
	"materials":[{
		"pbrMetallicRoughness":{
			"baseColorFactor":[0.0,
			0.0,
			0.0,
			1.0],
			"metallicFactor":1.0,
			"roughnessFactor":1.0
		},
		"name":"Dark Gradient",
		"emissiveFactor":[0.0,
		0.0,
		0.0],
		"alphaMode":"OPAQUE",
		"doubleSided":false
	},
	{
		"pbrMetallicRoughness":{
			"baseColorFactor":[0.0,
			0.48,
			0.2800000000000001,
			1.0],
			"metallicFactor":1.0,
			"roughnessFactor":1.0
		},
		"name":"Nice Green",
		"emissiveFactor":[0.0,
		0.12799999999999957,
		0.64],
		"alphaMode":"OPAQUE",
		"doubleSided":false
	},
	{
		"pbrMetallicRoughness":{
			"baseColorFactor":[0.0,
			0.0,
			0.0,
			1.0],
			"metallicFactor":0.0,
			"roughnessFactor":0.5
		},
		"name":"Polished Black",
		"emissiveFactor":[0.0,
		0.0,
		0.0],
		"alphaMode":"OPAQUE",
		"doubleSided":false
	},
	{
		"pbrMetallicRoughness":{
			"baseColorFactor":[0.11,
			0.11,
			0.11,
			1.0],
			"metallicFactor":1.0,
			"roughnessFactor":0.1
		},
		"name":"Metalic_2",
		"emissiveFactor":[0.0,
		0.0,
		0.0],
		"alphaMode":"OPAQUE",
		"doubleSided":false
	},
	{
		"pbrMetallicRoughness":{
			"baseColorFactor":[1.0,
			0.0,
			0.6833333333333327,
			1.0],
			"metallicFactor":0.0,
			"roughnessFactor":0.5
		},
		"name":"Rainbow",
		"emissiveFactor":[1.0,
		0.35,
		0.0],
		"alphaMode":"OPAQUE",
		"doubleSided":false
	},
	{
		"pbrMetallicRoughness":{
			"baseColorFactor":[1.0,
			0.8666666666666673,
			0.0,
			1.0],
			"metallicFactor":1.0,
			"roughnessFactor":1.0
		},
		"name":"Yellow",
		"emissiveFactor":[1.0,
		0.8166666666666667,
		0.0],
		"alphaMode":"OPAQUE",
		"doubleSided":false
	},
	{
		"pbrMetallicRoughness":{
			"baseColorFactor":[0.8,
			0.8,
			0.8,
			1.0],
			"metallicFactor":0.0,
			"roughnessFactor":0.5
		},
		"name":"Pure White",
		"emissiveFactor":[1.0,
		1.0,
		1.0],
		"alphaMode":"OPAQUE",
		"doubleSided":false
	}]
}