{
	"asset": {
		"version": "2.0",
		"generator": "Created using the official Cinema 4D glTF Exporter 1.000x284978"
	},
	"scenes": [
		{
			"nodes": [
				0
			]
		}
	],
	"nodes": [
		{
			"name": "Cone",
			"translation": [
				0.0,
				13.056387901306153,
				0.0
			],
			"rotation": [
				0.0,
				0.0,
				0.0,
				-1.0
			],
			"scale": [
				1.0,
				1.0,
				1.0
			],
			"children": [
				1,
				2
			]
		},
		{
			"name": "ConeMat",
			"mesh": 0
		},
		{
			"name": "ConeMat1",
			"mesh": 1
		}
	],
	"meshes": [
		{
			"name": "ConeMat",
			"primitives": [
				{
					"attributes": {
						"POSITION": 1
					},
					"indices": 0,
					"material": 0
				}
			]
		},
		{
			"name": "ConeMat1",
			"primitives": [
				{
					"attributes": {
						"POSITION": 3
					},
					"indices": 2,
					"material": 1
				}
			]
		}
	],
	"accessors": [
		{
			"bufferView": 0,
			"type": "SCALAR",
			"min": [
				0
			],
			"componentType": 5123,
			"count": 528,
			"byteOffset": 0,
			"max": [
				143
			]
		},
		{
			"bufferView": 1,
			"type": "VEC3",
			"min": [
				-17.5,
				-13.461416244506836,
				-17.5
			],
			"componentType": 5126,
			"count": 144,
			"byteOffset": 0,
			"max": [
				17.5,
				30.931926727294923,
				17.5
			]
		},
		{
			"bufferView": 2,
			"type": "SCALAR",
			"min": [
				0
			],
			"componentType": 5123,
			"count": 192,
			"byteOffset": 0,
			"max": [
				63
			]
		},
		{
			"bufferView": 3,
			"type": "VEC3",
			"min": [
				-8.952404975891114,
				4.383678436279297,
				-8.952404975891114
			],
			"componentType": 5126,
			"count": 64,
			"byteOffset": 0,
			"max": [
				8.952404975891114,
				23.96424674987793,
				8.952404975891114
			]
		}
	],
	"bufferViews": [
		{
			"buffer": 0,
			"byteOffset": 0,
			"byteLength": 1056,
			"target": 34963
		},
		{
			"buffer": 0,
			"byteOffset": 1056,
			"byteLength": 1728,
			"target": 34962
		},
		{
			"buffer": 1,
			"byteOffset": 0,
			"byteLength": 384,
			"target": 34963
		},
		{
			"buffer": 1,
			"byteOffset": 384,
			"byteLength": 768,
			"target": 34962
		}
	],
	"buffers": [
		{
			"uri": "data:application/octet-stream;base64,",
			"byteLength": 2784
		},
		{
			"uri": "data:application/octet-stream;base64,",
			"byteLength": 1152
		}
	],
	"materials": [
		{
			"pbrMetallicRoughness": {
				"baseColorFactor": [
					1.0,
					0.46666666666666659,
					0.0,
					1.0
				],
				"metallicFactor": 0.0,
				"roughnessFactor": 0.5
			},
			"name": "Mat",
			"emissiveFactor": [
				1.0,
				0.35,
				0.0
			],
			"alphaMode": "OPAQUE",
			"doubleSided": false
		},
		{
			"pbrMetallicRoughness": {
				"baseColorFactor": [
					1.0,
					1.0,
					1.0,
					1.0
				],
				"metallicFactor": 0.0,
				"roughnessFactor": 0.5
			},
			"name": "Mat1",
			"emissiveFactor": [
				0.69,
				0.9845000000000004,
				1.0
			],
			"alphaMode": "OPAQUE",
			"doubleSided": false
		}
	]
}