{
	"asset":{
		"version":"2.0",
		"generator":"Created using the official Cinema 4D glTF Exporter 1.000x284978"
	},
	"scenes":[{
		"nodes":[0]
	}],
	"nodes":[{
		"name":"Evans",
		"translation":[-59.911380767822269,
		97.99130249023438,
		225.97889709472657],
		"rotation":[0.0,
		0.0,
		0.0,
		-1.0],
		"scale":[1.0,
		1.0,
		1.0],
		"children":[1,
		2,
		3,
		4,
		5,
		6,
		7]
	},
	{
		"name":"Evans-Metalic_3",
		"mesh":0
	},
	{
		"name":"Evans-Grey_2",
		"mesh":1
	},
	{
		"name":"Evans-Red Shadow_3",
		"mesh":2
	},
	{
		"name":"Evans-Pure Black_2",
		"mesh":3
	},
	{
		"name":"Evans-Pure White_3",
		"mesh":4
	},
	{
		"name":"Evans-Musterd_2",
		"mesh":5
	},
	{
		"name":"Evans-Marble White_2",
		"mesh":6
	}],
	"meshes":[{
		"name":"Evans-Metalic_3",
		"primitives":[{
			"attributes":{
				"POSITION":1,
				"JOINTS_0":2,
				"WEIGHTS_0":3
			},
			"indices":0,
			"material":0
		}]
	},
	{
		"name":"Evans-Grey_2",
		"primitives":[{
			"attributes":{
				"POSITION":5,
				"JOINTS_0":6,
				"WEIGHTS_0":7
			},
			"indices":4,
			"material":1
		}]
	},
	{
		"name":"Evans-Red Shadow_3",
		"primitives":[{
			"attributes":{
				"POSITION":9,
				"JOINTS_0":10,
				"WEIGHTS_0":11
			},
			"indices":8,
			"material":2
		}]
	},
	{
		"name":"Evans-Pure Black_2",
		"primitives":[{
			"attributes":{
				"POSITION":13,
				"JOINTS_0":14,
				"WEIGHTS_0":15
			},
			"indices":12,
			"material":3
		}]
	},
	{
		"name":"Evans-Pure White_3",
		"primitives":[{
			"attributes":{
				"POSITION":17,
				"JOINTS_0":18,
				"WEIGHTS_0":19
			},
			"indices":16,
			"material":4
		}]
	},
	{
		"name":"Evans-Musterd_2",
		"primitives":[{
			"attributes":{
				"POSITION":21,
				"JOINTS_0":22,
				"WEIGHTS_0":23
			},
			"indices":20,
			"material":5
		}]
	},
	{
		"name":"Evans-Marble White_2",
		"primitives":[{
			"attributes":{
				"POSITION":25,
				"JOINTS_0":26,
				"WEIGHTS_0":27
			},
			"indices":24,
			"material":6
		}]
	}],
	"accessors":[{
		"bufferView":0,
		"type":"SCALAR",
		"componentType":5123,
		"count":56832,
		"byteOffset":0,
		"min":[0],
		"max":[9584]
	},
	{
		"bufferView":1,
		"type":"VEC3",
		"componentType":5126,
		"count":9585,
		"byteOffset":0,
		"min":[-36.11591339111328,
		-98.68961334228516,
		-39.79258346557617],
		"max":[17.7257137298584,
		39.79095458984375,
		38.16884231567383]
	},
	{
		"bufferView":2,
		"type":"VEC4",
		"componentType":5123,
		"count":9585,
		"byteOffset":0,
		"min":[0,
		0,
		0,
		0],
		"max":[33,
		33,
		33,
		33]
	},
	{
		"bufferView":3,
		"type":"VEC4",
		"componentType":5126,
		"count":9585,
		"byteOffset":0,
		"min":[0.3191729485988617,
		0.0,
		0.0,
		0.0],
		"max":[1.0,
		0.49948883056640627,
		0.329671174287796,
		0.16148622334003449]
	},
	{
		"bufferView":4,
		"type":"SCALAR",
		"componentType":5123,
		"count":672,
		"byteOffset":0,
		"min":[0],
		"max":[115]
	},
	{
		"bufferView":5,
		"type":"VEC3",
		"componentType":5126,
		"count":116,
		"byteOffset":0,
		"min":[-22.998035430908204,
		66.3298568725586,
		-40.41318130493164],
		"max":[-9.33192253112793,
		83.79362487792969,
		40.98672103881836]
	},
	{
		"bufferView":6,
		"type":"VEC4",
		"componentType":5123,
		"count":116,
		"byteOffset":0,
		"min":[6,
		5,
		4,
		3],
		"max":[6,
		5,
		4,
		3]
	},
	{
		"bufferView":7,
		"type":"VEC4",
		"componentType":5126,
		"count":116,
		"byteOffset":0,
		"min":[1.0,
		0.0,
		0.0,
		0.0],
		"max":[1.0,
		0.0,
		0.0,
		0.0]
	},
	{
		"bufferView":8,
		"type":"SCALAR",
		"componentType":5123,
		"count":432,
		"byteOffset":0,
		"min":[0],
		"max":[77]
	},
	{
		"bufferView":9,
		"type":"VEC3",
		"componentType":5126,
		"count":78,
		"byteOffset":0,
		"min":[-25.215850830078126,
		22.967029571533204,
		-13.506407737731934],
		"max":[-17.061723709106447,
		31.661643981933595,
		13.618265151977539]
	},
	{
		"bufferView":10,
		"type":"VEC4",
		"componentType":5123,
		"count":78,
		"byteOffset":0,
		"min":[0,
		1,
		1,
		1],
		"max":[0,
		5,
		4,
		3]
	},
	{
		"bufferView":11,
		"type":"VEC4",
		"componentType":5126,
		"count":78,
		"byteOffset":0,
		"min":[0.5970092415809631,
		0.0,
		0.0,
		0.0],
		"max":[1.0,
		0.40296024084091189,
		0.013534752652049065,
		0.0]
	},
	{
		"bufferView":12,
		"type":"SCALAR",
		"componentType":5123,
		"count":281460,
		"byteOffset":0,
		"min":[0],
		"max":[47151]
	},
	{
		"bufferView":13,
		"type":"VEC3",
		"componentType":5126,
		"count":47152,
		"byteOffset":0,
		"min":[-37.0778923034668,
		-3.4594554901123049,
		-16.493215560913087],
		"max":[-0.3862232565879822,
		70.36921691894531,
		18.672481536865236]
	},
	{
		"bufferView":14,
		"type":"VEC4",
		"componentType":5123,
		"count":47152,
		"byteOffset":0,
		"min":[0,
		0,
		0,
		0],
		"max":[24,
		27,
		27,
		27]
	},
	{
		"bufferView":15,
		"type":"VEC4",
		"componentType":5126,
		"count":47152,
		"byteOffset":0,
		"min":[0.4570229649543762,
		0.0,
		0.0,
		0.0],
		"max":[1.0,
		0.49999237060546877,
		0.15666437149047852,
		0.046616312116384509]
	},
	{
		"bufferView":16,
		"type":"SCALAR",
		"componentType":5123,
		"count":9936,
		"byteOffset":0,
		"min":[0],
		"max":[1659]
	},
	{
		"bufferView":17,
		"type":"VEC3",
		"componentType":5126,
		"count":1660,
		"byteOffset":0,
		"min":[-36.615657806396487,
		59.14069747924805,
		-13.493256568908692],
		"max":[-28.095632553100587,
		65.40740203857422,
		16.233510971069337]
	},
	{
		"bufferView":18,
		"type":"VEC4",
		"componentType":5123,
		"count":1660,
		"byteOffset":0,
		"min":[6,
		5,
		4,
		3],
		"max":[6,
		5,
		4,
		3]
	},
	{
		"bufferView":19,
		"type":"VEC4",
		"componentType":5126,
		"count":1660,
		"byteOffset":0,
		"min":[1.0,
		0.0,
		0.0,
		0.0],
		"max":[1.0,
		0.0,
		0.0,
		0.0]
	},
	{
		"bufferView":20,
		"type":"SCALAR",
		"componentType":5123,
		"count":24672,
		"byteOffset":0,
		"min":[0],
		"max":[4222]
	},
	{
		"bufferView":21,
		"type":"VEC3",
		"componentType":5126,
		"count":4223,
		"byteOffset":0,
		"min":[-54.61199951171875,
		-2.297353744506836,
		-26.180845260620118],
		"max":[-3.175915241241455,
		77.5145034790039,
		26.559846878051759]
	},
	{
		"bufferView":22,
		"type":"VEC4",
		"componentType":5123,
		"count":4223,
		"byteOffset":0,
		"min":[0,
		0,
		0,
		1],
		"max":[22,
		22,
		22,
		22]
	},
	{
		"bufferView":23,
		"type":"VEC4",
		"componentType":5126,
		"count":4223,
		"byteOffset":0,
		"min":[0.27931639552116396,
		0.0,
		0.0,
		0.0],
		"max":[1.0,
		0.49788662791252139,
		0.28068971633911135,
		0.16975662112236024]
	},
	{
		"bufferView":24,
		"type":"SCALAR",
		"componentType":5123,
		"count":10212,
		"byteOffset":0,
		"min":[0],
		"max":[2020]
	},
	{
		"bufferView":25,
		"type":"VEC3",
		"componentType":5126,
		"count":2021,
		"byteOffset":0,
		"min":[-35.26580047607422,
		-0.7799888253211975,
		-28.499727249145509],
		"max":[-3.806349277496338,
		41.96371078491211,
		25.134510040283204]
	},
	{
		"bufferView":26,
		"type":"VEC4",
		"componentType":5123,
		"count":2021,
		"byteOffset":0,
		"min":[0,
		0,
		0,
		0],
		"max":[25,
		25,
		25,
		27]
	},
	{
		"bufferView":27,
		"type":"VEC4",
		"componentType":5126,
		"count":2021,
		"byteOffset":0,
		"min":[0.37235066294670107,
		0.0,
		0.0,
		0.0],
		"max":[1.0,
		0.4888685345649719,
		0.27539482712745669,
		0.08641184121370316]
	}],
	"bufferViews":[{
		"buffer":0,
		"byteOffset":0,
		"byteLength":113664,
		"target":34963
	},
	{
		"buffer":0,
		"byteOffset":113664,
		"byteLength":115020,
		"target":34962
	},
	{
		"buffer":0,
		"byteOffset":228684,
		"byteLength":76680,
		"target":34962
	},
	{
		"buffer":0,
		"byteOffset":305364,
		"byteLength":153360,
		"target":34962
	},
	{
		"buffer":1,
		"byteOffset":0,
		"byteLength":1344,
		"target":34963
	},
	{
		"buffer":1,
		"byteOffset":1344,
		"byteLength":1392,
		"target":34962
	},
	{
		"buffer":1,
		"byteOffset":2736,
		"byteLength":928,
		"target":34962
	},
	{
		"buffer":1,
		"byteOffset":3664,
		"byteLength":1856,
		"target":34962
	},
	{
		"buffer":2,
		"byteOffset":0,
		"byteLength":864,
		"target":34963
	},
	{
		"buffer":2,
		"byteOffset":864,
		"byteLength":936,
		"target":34962
	},
	{
		"buffer":2,
		"byteOffset":1800,
		"byteLength":624,
		"target":34962
	},
	{
		"buffer":2,
		"byteOffset":2424,
		"byteLength":1248,
		"target":34962
	},
	{
		"buffer":3,
		"byteOffset":0,
		"byteLength":562920,
		"target":34963
	},
	{
		"buffer":3,
		"byteOffset":562920,
		"byteLength":565824,
		"target":34962
	},
	{
		"buffer":3,
		"byteOffset":1128744,
		"byteLength":377216,
		"target":34962
	},
	{
		"buffer":3,
		"byteOffset":1505960,
		"byteLength":754432,
		"target":34962
	},
	{
		"buffer":4,
		"byteOffset":0,
		"byteLength":19872,
		"target":34963
	},
	{
		"buffer":4,
		"byteOffset":19872,
		"byteLength":19920,
		"target":34962
	},
	{
		"buffer":4,
		"byteOffset":39792,
		"byteLength":13280,
		"target":34962
	},
	{
		"buffer":4,
		"byteOffset":53072,
		"byteLength":26560,
		"target":34962
	},
	{
		"buffer":5,
		"byteOffset":0,
		"byteLength":49344,
		"target":34963
	},
	{
		"buffer":5,
		"byteOffset":49344,
		"byteLength":50676,
		"target":34962
	},
	{
		"buffer":5,
		"byteOffset":100020,
		"byteLength":33784,
		"target":34962
	},
	{
		"buffer":5,
		"byteOffset":133804,
		"byteLength":67568,
		"target":34962
	},
	{
		"buffer":6,
		"byteOffset":0,
		"byteLength":20424,
		"target":34963
	},
	{
		"buffer":6,
		"byteOffset":20424,
		"byteLength":24252,
		"target":34962
	},
	{
		"buffer":6,
		"byteOffset":44676,
		"byteLength":16168,
		"target":34962
	},
	{
		"buffer":6,
		"byteOffset":60844,
		"byteLength":32336,
		"target":34962
	}],
	"buffers":[{
		"uri":"data:application/octet-stream;base64,",
		"byteLength":458724
	},
	{
		"uri":"data:application/octet-stream;base64,",
		"byteLength":5520
	},
	{
		"uri":"data:application/octet-stream;base64,",
		"byteLength":3672
	},
	{
		"uri":"data:application/octet-stream;base64,",
		"byteLength":2260392
	},
	{
		"uri":"data:application/octet-stream;base64,",
		"byteLength":79632
	},
	{
		"uri":"data:application/octet-stream;base64,",
		"byteLength":201372
	},
	{
		"uri":"data:application/octet-stream;base64,",
		"byteLength":93180
	}],
	"materials":[{
		"pbrMetallicRoughness":{
			"baseColorFactor":[0.11,
			0.11,
			0.11,
			1.0],
			"metallicFactor":1.0,
			"roughnessFactor":0.0
		},
		"emissiveFactor":[0.0,
		0.0,
		0.0],
		"alphaMode":"OPAQUE",
		"doubleSided":true,
		"name":"Metalic_3"
	},
	{
		"pbrMetallicRoughness":{
			"baseColorFactor":[0.41000000000000005,
			0.39646999999999996,
			0.3198000000000001,
			1.0],
			"metallicFactor":1.0,
			"roughnessFactor":1.0
		},
		"emissiveFactor":[0.15599999999999993,
		0.0,
		0.26],
		"alphaMode":"OPAQUE",
		"doubleSided":true,
		"name":"Grey_2"
	},
	{
		"pbrMetallicRoughness":{
			"baseColorFactor":[1.0,
			0.0,
			0.0,
			1.0],
			"metallicFactor":1.0,
			"roughnessFactor":1.0
		},
		"emissiveFactor":[0.3080000000000005,
		0.0,
		0.44],
		"alphaMode":"OPAQUE",
		"doubleSided":true,
		"name":"Red Shadow_3"
	},
	{
		"pbrMetallicRoughness":{
			"baseColorFactor":[0.0,
			0.0,
			0.0,
			1.0],
			"metallicFactor":1.0,
			"roughnessFactor":1.0
		},
		"emissiveFactor":[0.0,
		0.0,
		0.0],
		"alphaMode":"OPAQUE",
		"doubleSided":true,
		"name":"Pure Black_2"
	},
	{
		"pbrMetallicRoughness":{
			"baseColorFactor":[0.0,
			0.0,
			0.0,
			1.0],
			"metallicFactor":1.0,
			"roughnessFactor":1.0
		},
		"emissiveFactor":[1.0,
		1.0,
		1.0],
		"alphaMode":"OPAQUE",
		"doubleSided":true,
		"name":"Pure White_3"
	},
	{
		"pbrMetallicRoughness":{
			"baseColorFactor":[0.62,
			0.5476666666666666,
			0.0,
			1.0],
			"metallicFactor":1.0,
			"roughnessFactor":1.0
		},
		"emissiveFactor":[0.14466666666666698,
		0.0,
		0.31],
		"alphaMode":"OPAQUE",
		"doubleSided":true,
		"name":"Musterd_2"
	},
	{
		"pbrMetallicRoughness":{
			"baseColorFactor":[1.0,
			1.0,
			1.0,
			1.0],
			"metallicFactor":1.0,
			"roughnessFactor":0.0
		},
		"emissiveFactor":[0.0,
		0.0,
		0.0],
		"alphaMode":"OPAQUE",
		"doubleSided":true,
		"name":"Marble White_2"
	}]
}