{
	"materials":[{
		"pbrMetallicRoughness":{
			"baseColorFactor":[0.0,
			0.0,
			0.0,
			1.0],
			"metallicFactor":1.0,
			"roughnessFactor":1.0
		},
		"emissiveFactor":[0.0,
		0.0,
		0.0],
		"alphaMode":"OPAQUE",
		"doubleSided":true,
		"name":"Mat.2"
	},
	{
		"pbrMetallicRoughness":{
			"baseColorFactor":[0.8,
			0.8,
			0.8,
			1.0],
			"metallicFactor":0.0,
			"roughnessFactor":0.5
		},
		"emissiveFactor":[1.0,
		1.0,
		1.0],
		"alphaMode":"OPAQUE",
		"doubleSided":true,
		"name":"Mat.1"
	},
	{
		"pbrMetallicRoughness":{
			"baseColorFactor":[0.15,
			0.06670000000000001,
			0.0030000000000000028,
			1.0],
			"metallicFactor":1.0,
			"roughnessFactor":1.0
		},
		"emissiveFactor":[0.001332000000000001,
		0.018736799999999996,
		0.06659999999999999],
		"alphaMode":"OPAQUE",
		"doubleSided":true,
		"name":"Mat"
	},
	{
		"pbrMetallicRoughness":{
			"baseColorFactor":[0.011764705882352941,
			0.0039215686274509799,
			0.0,
			1.0],
			"metallicFactor":1.0,
			"roughnessFactor":1.0
		},
		"emissiveFactor":[0.0,
		0.0,
		0.0],
		"alphaMode":"OPAQUE",
		"doubleSided":true,
		"name":"Mat.4"
	}],
	"asset":{
		"version":"2.0",
		"generator":"Created using the official Cinema 4D glTF Exporter 1.000x284978"
	},
	"scenes":[{
		"nodes":[0]
	}],
	"nodes":[{
		"name":"head.2",
		"translation":[2.2979847358328699e-7,
		162.9764404296875,
		0.5917429327964783],
		"rotation":[0.0,
		0.0,
		0.0,
		-1.0],
		"scale":[1.0,
		1.0,
		1.0],
		"children":[1,
		2,
		3,
		4,
		5,
		6]
	},
	{
		"name":"head.2-Mat.2",
		"translation":[0.0,
		0.0,
		0.0],
		"rotation":[0.0,
		0.0,
		0.0,
		-1.0],
		"scale":[1.0,
		1.0,
		1.0],
		"mesh":0
	},
	{
		"name":"head.2-Mat.1",
		"mesh":1
	},
	{
		"name":"head.2-Mat.2",
		"mesh":2
	},
	{
		"name":"head.2-Mat.2",
		"mesh":3
	},
	{
		"name":"head.2-Mat",
		"mesh":4
	},
	{
		"name":"head.2-Mat.4",
		"mesh":5
	}],
	"meshes":[{
		"name":"head.2-Mat.2",
		"primitives":[{
			"attributes":{
				"POSITION":7
			},
			"indices":6,
			"material":0
		}]
	},
	{
		"name":"head.2-Mat.1",
		"primitives":[{
			"attributes":{
				"POSITION":15
			},
			"indices":14,
			"material":1
		}]
	},
	{
		"name":"head.2-Mat.2",
		"primitives":[{
			"attributes":{
				"POSITION":17
			},
			"indices":16,
			"material":0
		}]
	},
	{
		"name":"head.2-Mat.2",
		"primitives":[{
			"attributes":{
				"POSITION":19
			},
			"indices":18,
			"material":0
		}]
	},
	{
		"name":"head.2-Mat",
		"primitives":[{
			"attributes":{
				"POSITION":21
			},
			"indices":20,
			"material":2
		}]
	},
	{
		"name":"head.2-Mat.4",
		"primitives":[{
			"attributes":{
				"POSITION":23
			},
			"indices":22,
			"material":3
		}]
	}],
	"accessors":[{
		"bufferView":0,
		"type":"SCALAR",
		"componentType":5126,
		"count":5,
		"max":[5.0],
		"byteOffset":0,
		"min":[0.0]
	},
	{
		"bufferView":0,
		"type":"VEC3",
		"componentType":5126,
		"count":5,
		"max":[2.2979847358328699e-7,
		162.9764404296875,
		0.5917429327964783],
		"byteOffset":20,
		"min":[2.2979847358328699e-7,
		162.9764404296875,
		0.5917429327964783]
	},
	{
		"bufferView":1,
		"type":"SCALAR",
		"componentType":5126,
		"count":5,
		"max":[5.0],
		"byteOffset":0,
		"min":[0.0]
	},
	{
		"bufferView":1,
		"type":"VEC4",
		"componentType":5126,
		"count":5,
		"max":[0.0,
		0.0,
		0.0,
		-0.9904534816741943],
		"byteOffset":20,
		"min":[-0.13784734904766084,
		0.0,
		0.0,
		-1.0]
	},
	{
		"bufferView":2,
		"type":"SCALAR",
		"componentType":5126,
		"count":5,
		"max":[5.0],
		"byteOffset":0,
		"min":[0.0]
	},
	{
		"bufferView":2,
		"type":"VEC3",
		"componentType":5126,
		"count":5,
		"max":[1.0,
		1.0,
		1.0],
		"byteOffset":20,
		"min":[1.0,
		1.0,
		1.0]
	},
	{
		"bufferView":3,
		"type":"SCALAR",
		"componentType":5123,
		"count":10752,
		"max":[1795],
		"byteOffset":0,
		"min":[0]
	},
	{
		"bufferView":4,
		"type":"VEC3",
		"componentType":5126,
		"count":1796,
		"max":[9.03880500793457,
		4.770941257476807,
		13.935771942138672],
		"byteOffset":0,
		"min":[-9.038805961608887,
		2.6438355445861818,
		13.260555267333985]
	},
	{
		"bufferView":5,
		"type":"SCALAR",
		"componentType":5126,
		"count":5,
		"max":[5.0],
		"byteOffset":0,
		"min":[0.0]
	},
	{
		"bufferView":5,
		"type":"VEC3",
		"componentType":5126,
		"count":5,
		"max":[2.2979847358328699e-7,
		162.9764404296875,
		0.5917429327964783],
		"byteOffset":20,
		"min":[2.2979847358328699e-7,
		162.9764404296875,
		0.5917429327964783]
	},
	{
		"bufferView":6,
		"type":"SCALAR",
		"componentType":5126,
		"count":5,
		"max":[5.0],
		"byteOffset":0,
		"min":[0.0]
	},
	{
		"bufferView":6,
		"type":"VEC4",
		"componentType":5126,
		"count":5,
		"max":[0.0,
		0.0,
		0.0,
		-0.9904534816741943],
		"byteOffset":20,
		"min":[-0.13784734904766084,
		0.0,
		0.0,
		-1.0]
	},
	{
		"bufferView":7,
		"type":"SCALAR",
		"componentType":5126,
		"count":5,
		"max":[5.0],
		"byteOffset":0,
		"min":[0.0]
	},
	{
		"bufferView":7,
		"type":"VEC3",
		"componentType":5126,
		"count":5,
		"max":[1.0,
		1.0,
		1.0],
		"byteOffset":20,
		"min":[1.0,
		1.0,
		1.0]
	},
	{
		"bufferView":8,
		"type":"SCALAR",
		"componentType":5123,
		"count":23040,
		"max":[3843],
		"byteOffset":0,
		"min":[0]
	},
	{
		"bufferView":9,
		"type":"VEC3",
		"componentType":5126,
		"count":3844,
		"max":[8.771556854248047,
		2.2566845417022707,
		14.14991569519043],
		"byteOffset":0,
		"min":[-8.771557807922364,
		-1.6620433330535889,
		12.121947288513184]
	},
	{
		"bufferView":10,
		"type":"SCALAR",
		"componentType":5123,
		"count":216,
		"max":[73],
		"byteOffset":0,
		"min":[0]
	},
	{
		"bufferView":11,
		"type":"VEC3",
		"componentType":5126,
		"count":74,
		"max":[6.720986366271973,
		0.9991627931594849,
		14.224342346191407],
		"byteOffset":0,
		"min":[-6.720986843109131,
		-0.40185171365737917,
		14.037222862243653]
	},
	{
		"bufferView":12,
		"type":"SCALAR",
		"componentType":5123,
		"count":25344,
		"max":[4328],
		"byteOffset":0,
		"min":[0]
	},
	{
		"bufferView":13,
		"type":"VEC3",
		"componentType":5126,
		"count":4329,
		"max":[12.47053337097168,
		18.927743911743165,
		13.55465316772461],
		"byteOffset":0,
		"min":[-12.47053337097168,
		-8.008064270019532,
		-15.157848358154297]
	},
	{
		"bufferView":14,
		"type":"SCALAR",
		"componentType":5123,
		"count":64512,
		"max":[10761],
		"byteOffset":0,
		"min":[0]
	},
	{
		"bufferView":15,
		"type":"VEC3",
		"componentType":5126,
		"count":10762,
		"max":[15.919231414794922,
		18.519546508789064,
		15.157848358154297],
		"byteOffset":0,
		"min":[-15.919231414794922,
		-18.75699234008789,
		-14.467041015625]
	},
	{
		"bufferView":16,
		"type":"SCALAR",
		"componentType":5123,
		"count":8424,
		"max":[1589],
		"byteOffset":0,
		"min":[0]
	},
	{
		"bufferView":17,
		"type":"VEC3",
		"componentType":5126,
		"count":1590,
		"max":[7.543435096740723,
		1.857706069946289,
		14.333915710449219],
		"byteOffset":0,
		"min":[-7.543435573577881,
		-18.927743911743165,
		4.570621490478516]
	}],
	"bufferViews":[{
		"buffer":0,
		"byteOffset":0,
		"byteLength":80
	},
	{
		"buffer":0,
		"byteOffset":80,
		"byteLength":100
	},
	{
		"buffer":0,
		"byteOffset":180,
		"byteLength":80
	},
	{
		"buffer":1,
		"byteOffset":0,
		"byteLength":21504,
		"target":34963
	},
	{
		"buffer":1,
		"byteOffset":21504,
		"byteLength":21552,
		"target":34962
	},
	{
		"buffer":2,
		"byteOffset":0,
		"byteLength":80
	},
	{
		"buffer":2,
		"byteOffset":80,
		"byteLength":100
	},
	{
		"buffer":2,
		"byteOffset":180,
		"byteLength":80
	},
	{
		"buffer":3,
		"byteOffset":0,
		"byteLength":46080,
		"target":34963
	},
	{
		"buffer":3,
		"byteOffset":46080,
		"byteLength":46128,
		"target":34962
	},
	{
		"buffer":4,
		"byteOffset":0,
		"byteLength":432,
		"target":34963
	},
	{
		"buffer":4,
		"byteOffset":432,
		"byteLength":888,
		"target":34962
	},
	{
		"buffer":5,
		"byteOffset":0,
		"byteLength":50688,
		"target":34963
	},
	{
		"buffer":5,
		"byteOffset":50688,
		"byteLength":51948,
		"target":34962
	},
	{
		"buffer":6,
		"byteOffset":0,
		"byteLength":129024,
		"target":34963
	},
	{
		"buffer":6,
		"byteOffset":129024,
		"byteLength":129144,
		"target":34962
	},
	{
		"buffer":7,
		"byteOffset":0,
		"byteLength":16848,
		"target":34963
	},
	{
		"buffer":7,
		"byteOffset":16848,
		"byteLength":19080,
		"target":34962
	}],
	"buffers":[{
		"uri":"data:application/octet-stream;base64,",
		"byteLength":260
	},
	{
		"uri":"data:application/octet-stream;base64,",
		"byteLength":43056
	},
	{
		"uri":"data:application/octet-stream;base64,",
		"byteLength":260
	},
	{
		"uri":"data:application/octet-stream;base64,",
		"byteLength":92208
	},
	{
		"uri":"data:application/octet-stream;base64,",
		"byteLength":1320
	},
	{
		"uri":"data:application/octet-stream;base64,",
		"byteLength":102636
	},
	{
		"uri":"data:application/octet-stream;base64,",
		"byteLength":258168
	},
	{
		"uri":"data:application/octet-stream;base64,",
		"byteLength":35928
	}],
	"animations":[{
		"samplers":[{
			"input":0,
			"interpolation":"LINEAR",
			"output":1
		},
		{
			"input":2,
			"interpolation":"LINEAR",
			"output":3
		},
		{
			"input":4,
			"interpolation":"LINEAR",
			"output":5
		},
		{
			"input":8,
			"interpolation":"LINEAR",
			"output":9
		},
		{
			"input":10,
			"interpolation":"LINEAR",
			"output":11
		},
		{
			"input":12,
			"interpolation":"LINEAR",
			"output":13
		}],
		"channels":[{
			"sampler":0,
			"target":{
				"node":0,
				"path":"translation"
			}
		},
		{
			"sampler":1,
			"target":{
				"node":0,
				"path":"rotation"
			}
		},
		{
			"sampler":2,
			"target":{
				"node":0,
				"path":"scale"
			}
		},
		{
			"sampler":3,
			"target":{
				"node":1,
				"path":"translation"
			}
		},
		{
			"sampler":4,
			"target":{
				"node":1,
				"path":"rotation"
			}
		},
		{
			"sampler":5,
			"target":{
				"node":1,
				"path":"scale"
			}
		}]
	}]
}