{
	"asset": {
		"version": "2.0",
		"generator": "Created using the official Cinema 4D glTF Exporter 1.000x284978"
	},
	"scenes": [
		{
			"nodes": [
				0
			]
		}
	],
	"nodes": [
		{
			"name": "StopSign1",
			"children": [
				1,
				2,
				3
			]
		},
		{
			"name": "StopSignMat1",
			"mesh": 0
		},
		{
			"name": "StopSignMat",
			"mesh": 1
		},
		{
			"name": "StopSignMat1",
			"mesh": 2
		}
	],
	"meshes": [
		{
			"name": "StopSignMat1",
			"primitives": [
				{
					"attributes": {
						"POSITION": 1
					},
					"indices": 0,
					"material": 0
				}
			]
		},
		{
			"name": "StopSignMat",
			"primitives": [
				{
					"attributes": {
						"POSITION": 3
					},
					"indices": 2,
					"material": 1
				}
			]
		},
		{
			"name": "StopSignMat1",
			"primitives": [
				{
					"attributes": {
						"POSITION": 5
					},
					"indices": 4,
					"material": 0
				}
			]
		}
	],
	"accessors": [
		{
			"bufferView": 0,
			"type": "SCALAR",
			"count": 168,
			"componentType": 5123,
			"byteOffset": 0,
			"min": [
				0
			],
			"max": [
				31
			]
		},
		{
			"bufferView": 1,
			"type": "VEC3",
			"count": 32,
			"componentType": 5126,
			"byteOffset": 0,
			"min": [
				-141.4259490966797,
				-141.42135620117188,
				-6.419530868530273
			],
			"max": [
				141.4202423095703,
				141.42135620117188,
				-1.358254075050354
			]
		},
		{
			"bufferView": 2,
			"type": "SCALAR",
			"count": 12,
			"componentType": 5123,
			"byteOffset": 0,
			"min": [
				0
			],
			"max": [
				7
			]
		},
		{
			"bufferView": 3,
			"type": "VEC3",
			"count": 8,
			"componentType": 5126,
			"byteOffset": 0,
			"min": [
				-130.59487915039063,
				-130.59091186523438,
				-5.547084331512451
			],
			"max": [
				130.58917236328126,
				130.59091186523438,
				-2.230700731277466
			]
		},
		{
			"bufferView": 4,
			"type": "SCALAR",
			"count": 4428,
			"componentType": 5123,
			"byteOffset": 0,
			"min": [
				0
			],
			"max": [
				749
			]
		},
		{
			"bufferView": 5,
			"type": "VEC3",
			"count": 750,
			"componentType": 5126,
			"byteOffset": 0,
			"min": [
				-69.29248046875,
				-22.21027946472168,
				-7.392935752868652
			],
			"max": [
				69.2868423461914,
				18.97624397277832,
				-0.2912357747554779
			]
		}
	],
	"bufferViews": [
		{
			"buffer": 0,
			"byteOffset": 0,
			"byteLength": 336,
			"target": 34963
		},
		{
			"buffer": 0,
			"byteOffset": 336,
			"byteLength": 384,
			"target": 34962
		},
		{
			"buffer": 1,
			"byteOffset": 0,
			"byteLength": 24,
			"target": 34963
		},
		{
			"buffer": 1,
			"byteOffset": 24,
			"byteLength": 96,
			"target": 34962
		},
		{
			"buffer": 2,
			"byteOffset": 0,
			"byteLength": 8856,
			"target": 34963
		},
		{
			"buffer": 2,
			"byteOffset": 8856,
			"byteLength": 9000,
			"target": 34962
		}
	],
	"buffers": [
		{
			"uri": "data:application/octet-stream;base64,",
			"byteLength": 720
		},
		{
			"uri": "data:application/octet-stream;base64,",
			"byteLength": 120
		},
		{
			"uri": "data:application/octet-stream;base64,",
			"byteLength": 17856
		}
	],
	"materials": [
		{
			"pbrMetallicRoughness": {
				"baseColorFactor": [
					0.8,
					0.8,
					0.8,
					1.0
				],
				"metallicFactor": 0.0,
				"roughnessFactor": 0.5
			},
			"emissiveFactor": [
				1.0,
				1.0,
				1.0
			],
			"alphaMode": "OPAQUE",
			"doubleSided": true,
			"name": "Mat1"
		},
		{
			"pbrMetallicRoughness": {
				"baseColorFactor": [
					1.0,
					0.0,
					0.0,
					1.0
				],
				"metallicFactor": 1.0,
				"roughnessFactor": 1.0
			},
			"emissiveFactor": [
				0.0,
				0.08883333333333339,
				0.41000000000000005
			],
			"alphaMode": "OPAQUE",
			"doubleSided": true,
			"name": "Mat"
		}
	]
}