{
	"asset":{
		"version":"2.0",
		"generator":"Created using the official Cinema 4D glTF Exporter 1.000x284978"
	},
	"scenes":[{
		"nodes":[0]
	}],
	"nodes":[{
		"name":"Ticket Booth",
		"translation":[-57.43649673461914,
		190.93453979492188,
		37.32368087768555],
		"rotation":[0.0,
		0.0,
		0.0,
		-1.0],
		"scale":[1.0,
		1.0,
		1.0],
		"children":[1,
		2,
		3,
		4,
		5,
		6]
	},
	{
		"name":"Ticket Booth-Pure Black_1",
		"mesh":0
	},
	{
		"name":"Ticket Booth-Metalic_1",
		"mesh":1
	},
	{
		"name":"Ticket Booth-Red Shadow_2",
		"mesh":2
	},
	{
		"name":"Ticket Booth-Wood",
		"mesh":3
	},
	{
		"name":"Ticket Booth-Grey",
		"mesh":4
	},
	{
		"name":"Ticket Booth-Red shadow_1",
		"mesh":5
	}],
	"meshes":[{
		"name":"Ticket Booth-Pure Black_1",
		"primitives":[{
			"attributes":{
				"POSITION":1
			},
			"indices":0,
			"material":0
		}]
	},
	{
		"name":"Ticket Booth-Metalic_1",
		"primitives":[{
			"attributes":{
				"POSITION":3
			},
			"indices":2,
			"material":1
		}]
	},
	{
		"name":"Ticket Booth-Red Shadow_2",
		"primitives":[{
			"attributes":{
				"POSITION":5
			},
			"indices":4,
			"material":2
		}]
	},
	{
		"name":"Ticket Booth-Wood",
		"primitives":[{
			"attributes":{
				"POSITION":7
			},
			"indices":6,
			"material":3
		}]
	},
	{
		"name":"Ticket Booth-Grey",
		"primitives":[{
			"attributes":{
				"POSITION":9
			},
			"indices":8,
			"material":4
		}]
	},
	{
		"name":"Ticket Booth-Red shadow_1",
		"primitives":[{
			"attributes":{
				"POSITION":11
			},
			"indices":10,
			"material":5
		}]
	}],
	"accessors":[{
		"bufferView":0,
		"type":"SCALAR",
		"componentType":5123,
		"count":16992,
		"byteOffset":0,
		"min":[0],
		"max":[2845]
	},
	{
		"bufferView":1,
		"type":"VEC3",
		"componentType":5126,
		"count":2846,
		"byteOffset":0,
		"min":[-117.89779663085938,
		51.56553649902344,
		-167.67872619628907],
		"max":[-97.89779663085938,
		113.51963806152344,
		-30.645524978637697]
	},
	{
		"bufferView":2,
		"type":"SCALAR",
		"componentType":5123,
		"count":2052,
		"byteOffset":0,
		"min":[0],
		"max":[343]
	},
	{
		"bufferView":3,
		"type":"VEC3",
		"componentType":5126,
		"count":344,
		"byteOffset":0,
		"min":[63.926658630371097,
		-189.60189819335938,
		20.25555419921875],
		"max":[100.01268005371094,
		-52.441890716552737,
		125.82084655761719]
	},
	{
		"bufferView":4,
		"type":"SCALAR",
		"componentType":5123,
		"count":6,
		"byteOffset":0,
		"min":[0],
		"max":[3]
	},
	{
		"bufferView":5,
		"type":"VEC3",
		"componentType":5126,
		"count":4,
		"byteOffset":0,
		"min":[99.64405822753906,
		-28.652868270874025,
		134.3551483154297],
		"max":[99.64405822753906,
		30.315568923950197,
		242.5960235595703]
	},
	{
		"bufferView":6,
		"type":"SCALAR",
		"componentType":5123,
		"count":78,
		"byteOffset":0,
		"min":[0],
		"max":[15]
	},
	{
		"bufferView":7,
		"type":"VEC3",
		"componentType":5126,
		"count":16,
		"byteOffset":0,
		"min":[97.87413787841797,
		-30.102951049804689,
		132.48159790039063],
		"max":[100.59739685058594,
		31.765653610229493,
		244.46957397460938]
	},
	{
		"bufferView":8,
		"type":"SCALAR",
		"componentType":5123,
		"count":210,
		"byteOffset":0,
		"min":[0],
		"max":[39]
	},
	{
		"bufferView":9,
		"type":"VEC3",
		"componentType":5126,
		"count":40,
		"byteOffset":0,
		"min":[-111.3971939086914,
		-190.76873779296876,
		-194.042236328125],
		"max":[100.93213653564453,
		142.61196899414063,
		283.1691589355469]
	},
	{
		"bufferView":10,
		"type":"SCALAR",
		"componentType":5123,
		"count":36,
		"byteOffset":0,
		"min":[0],
		"max":[7]
	},
	{
		"bufferView":11,
		"type":"VEC3",
		"componentType":5126,
		"count":8,
		"byteOffset":0,
		"min":[-116.8707046508789,
		36.165199279785159,
		-181.41217041015626],
		"max":[-111.5291519165039,
		130.03404235839845,
		106.76480102539063]
	}],
	"bufferViews":[{
		"buffer":0,
		"byteOffset":0,
		"byteLength":33984,
		"target":34963
	},
	{
		"buffer":0,
		"byteOffset":33984,
		"byteLength":34152,
		"target":34962
	},
	{
		"buffer":1,
		"byteOffset":0,
		"byteLength":4104,
		"target":34963
	},
	{
		"buffer":1,
		"byteOffset":4104,
		"byteLength":4128,
		"target":34962
	},
	{
		"buffer":2,
		"byteOffset":0,
		"byteLength":12,
		"target":34963
	},
	{
		"buffer":2,
		"byteOffset":12,
		"byteLength":48,
		"target":34962
	},
	{
		"buffer":3,
		"byteOffset":0,
		"byteLength":156,
		"target":34963
	},
	{
		"buffer":3,
		"byteOffset":156,
		"byteLength":192,
		"target":34962
	},
	{
		"buffer":4,
		"byteOffset":0,
		"byteLength":420,
		"target":34963
	},
	{
		"buffer":4,
		"byteOffset":420,
		"byteLength":480,
		"target":34962
	},
	{
		"buffer":5,
		"byteOffset":0,
		"byteLength":72,
		"target":34963
	},
	{
		"buffer":5,
		"byteOffset":72,
		"byteLength":96,
		"target":34962
	}],
	"buffers":[{
		"uri":"data:application/octet-stream;base64,",
		"byteLength":68136
	},
	{
		"uri":"data:application/octet-stream;base64,",
		"byteLength":8232
	},
	{
		"uri":"data:application/octet-stream;base64,",
		"byteLength":60
	},
	{
		"uri":"data:application/octet-stream;base64,",
		"byteLength":348
	},
	{
		"uri":"data:application/octet-stream;base64,",
		"byteLength":900
	},
	{
		"uri":"data:application/octet-stream;base64,",
		"byteLength":168
	}],
	"materials":[{
		"pbrMetallicRoughness":{
			"baseColorFactor":[0.0,
			0.0,
			0.0,
			1.0],
			"metallicFactor":1.0,
			"roughnessFactor":1.0
		},
		"emissiveFactor":[0.0,
		0.0,
		0.0],
		"alphaMode":"OPAQUE",
		"doubleSided":true,
		"name":"Pure Black_1"
	},
	{
		"pbrMetallicRoughness":{
			"baseColorFactor":[0.11,
			0.11,
			0.11,
			1.0],
			"metallicFactor":1.0,
			"roughnessFactor":0.1
		},
		"emissiveFactor":[0.0,
		0.0,
		0.0],
		"alphaMode":"OPAQUE",
		"doubleSided":true,
		"name":"Metalic_1"
	},
	{
		"pbrMetallicRoughness":{
			"baseColorFactor":[0.8,
			0.0,
			0.0,
			1.0],
			"metallicFactor":1.0,
			"roughnessFactor":1.0
		},
		"emissiveFactor":[0.0,
		0.03166666666666655,
		0.38],
		"alphaMode":"OPAQUE",
		"doubleSided":true,
		"name":"Red Shadow_2"
	},
	{
		"pbrMetallicRoughness":{
			"baseColorFactor":[0.8,
			0.8,
			0.8,
			1.0],
			"metallicFactor":0.0,
			"roughnessFactor":0.5
		},
		"emissiveFactor":[0.0,
		0.0,
		0.0],
		"alphaMode":"OPAQUE",
		"doubleSided":true,
		"name":"Wood"
	},
	{
		"pbrMetallicRoughness":{
			"baseColorFactor":[0.41000000000000005,
			0.39646999999999996,
			0.3198000000000001,
			1.0],
			"metallicFactor":1.0,
			"roughnessFactor":1.0
		},
		"emissiveFactor":[0.15599999999999993,
		0.0,
		0.26],
		"alphaMode":"OPAQUE",
		"doubleSided":true,
		"name":"Grey"
	},
	{
		"pbrMetallicRoughness":{
			"baseColorFactor":[1.0,
			0.0,
			0.0,
			1.0],
			"metallicFactor":1.0,
			"roughnessFactor":1.0
		},
		"emissiveFactor":[0.3080000000000005,
		0.0,
		0.44],
		"alphaMode":"OPAQUE",
		"doubleSided":true,
		"name":"Red shadow_1"
	}]
}